<?xml version="1.0" encoding="iso-8859-1"?>
<!-- Generator: Adobe Illustrator 17.1.0, SVG Export Plug-In . SVG Version: 6.00 Build 0)  -->
<!DOCTYPE svg PUBLIC "-//W3C//DTD SVG 1.1//EN" "http://www.w3.org/Graphics/SVG/1.1/DTD/svg11.dtd">
<svg xmlns="http://www.w3.org/2000/svg" xmlns:xlink="http://www.w3.org/1999/xlink" version="1.1" id="Capa_1" x="0px" y="0px" viewBox="0 0 300 300" style="enable-background:new 0 0 300 300;" xml:space="preserve" width="512px" height="512px">
<g>
	<path d="M292,282h-19.333V67c0-4.418-3.249-8-7.667-8h-99c-4.418,0-8.333,3.582-8.333,8v215h-17V10c0-4.418-3.249-8-7.667-8H34   c-4.418,0-8.333,3.582-8.333,8v272H8c-4.418,0-8,3.582-8,8s3.582,8,8,8h284c4.418,0,8-3.582,8-8S296.418,282,292,282z M223.667,207   h-17v-34h17V207z M239.667,173h17v34h-17V173z M256.667,157h-17v-33h17V157z M223.667,157h-17v-33h17V157z M190.667,157h-17v-33h17   V157z M173.667,173h17v34h-17V173z M206.667,223h17v59h-17V223z M239.667,223h17v59h-17V223z M256.667,108h-17V75h17V108z    M223.667,108h-17V75h17V108z M190.667,108h-17V75h17V108z M173.667,223h17v59h-17V223z M91.667,157h-17v-33h17V157z M107.667,124   h17v33h-17V124z M124.667,108h-17V75h17V108z M91.667,108h-17V75h17V108z M58.667,108h-17V75h17V108z M41.667,124h17v33h-17V124z    M91.667,173v34h-17v-34H91.667z M107.667,173h17v34h-17V173z M41.667,173h17v34h-17V173z M74.667,223h17v59h-17V223z M107.667,223   h17v59h-17V223z M124.667,59h-17V18h17V59z M91.667,59h-17V18h17V59z M58.667,59h-17V18h17V59z M41.667,223h17v59h-17V223z" fill="#D80027"/>
</g>
<g>
</g>
<g>
</g>
<g>
</g>
<g>
</g>
<g>
</g>
<g>
</g>
<g>
</g>
<g>
</g>
<g>
</g>
<g>
</g>
<g>
</g>
<g>
</g>
<g>
</g>
<g>
</g>
<g>
</g>
</svg>
