<?xml version="1.0" encoding="iso-8859-1"?>
<!-- Generator: Adobe Illustrator 16.0.0, SVG Export Plug-In . SVG Version: 6.00 Build 0)  -->
<!DOCTYPE svg PUBLIC "-//W3C//DTD SVG 1.1//EN" "http://www.w3.org/Graphics/SVG/1.1/DTD/svg11.dtd">
<svg xmlns="http://www.w3.org/2000/svg" xmlns:xlink="http://www.w3.org/1999/xlink" version="1.1" id="Capa_1" x="0px" y="0px" width="512px" height="512px" viewBox="0 0 32 32" style="enable-background:new 0 0 32 32;" xml:space="preserve">
<g>
	<g>
		<path d="M5.665,9.33l4.805,6.211l9.944,0.603V14.96l3.74,1.319L32,16.925l-4.109-1.917l-2.83-3.189l-19.739-3.2L0,16.235    l0.947-0.051L5.665,9.33z M24.559,12.897l2.23,2.471l-0.428-0.01l-1.783-1.981l-1.504,1.986h-0.381L24.559,12.897z M15.155,11.377    l2.479,3.612h-0.416l-2.06-3.068l-2.061,3.068h-0.373L15.155,11.377z" fill="#D80027"/>
		<path d="M24.091,16.581l-3.37-1.19v1.077l-10.408-0.631l-4.634-5.99l-4.44,6.455v6.244l9.151,0.824v0.012l9.854-0.89v0.001    l3.492,0.209v0.002l0.012-0.001l0.039,0.003v-0.007l7.121-0.748V17.14L24.091,16.581z M4.262,13.992l2.443-0.285v2.103    l-2.443,0.17V13.992z M4.695,20.703l-2.496-0.103v-2.549l2.496-0.059V20.703z M9.184,20.86L6.16,20.74v-2.802l3.024-0.068V20.86z     M14.798,20.659l-3.144,0.119v-2.891l3.144,0.071V20.659z M19.21,20.38l-2.533,0.088v-2.586l2.533,0.064V20.38z M27.242,20.394    l-1.598,0.07v-2.041l1.598,0.025V20.394z M29.771,20.235l-1.353,0.058v-1.872l1.353,0.023V20.235z" fill="#D80027"/>
	</g>
</g>
<g>
</g>
<g>
</g>
<g>
</g>
<g>
</g>
<g>
</g>
<g>
</g>
<g>
</g>
<g>
</g>
<g>
</g>
<g>
</g>
<g>
</g>
<g>
</g>
<g>
</g>
<g>
</g>
<g>
</g>
</svg>
