<?xml version="1.0" encoding="iso-8859-1"?>
<!-- Generator: Adobe Illustrator 18.0.0, SVG Export Plug-In . SVG Version: 6.00 Build 0)  -->
<!DOCTYPE svg PUBLIC "-//W3C//DTD SVG 1.1//EN" "http://www.w3.org/Graphics/SVG/1.1/DTD/svg11.dtd">
<svg xmlns="http://www.w3.org/2000/svg" xmlns:xlink="http://www.w3.org/1999/xlink" version="1.1" id="Capa_1" x="0px" y="0px" viewBox="0 0 288.91 288.91" style="enable-background:new 0 0 288.91 288.91;" xml:space="preserve" width="512px" height="512px">
<path d="M286.713,191.536l-31.283-31.281c9.049-11.349,14.477-25.707,14.477-41.317c0-36.615-29.787-66.403-66.399-66.403  c-20.701,0-39.215,9.526-51.402,24.42v-16.92c0-4.142-3.358-7.5-7.5-7.5H75.631c-4.142,0-7.5,3.358-7.5,7.5v24.661H7.5  c-4.142,0-7.5,3.358-7.5,7.5v136.68c0,4.142,3.358,7.5,7.5,7.5h209.039c4.142,0,7.5-3.358,7.5-7.5v-46.801  c7.626-2.486,14.645-6.317,20.784-11.212l31.284,31.281c1.465,1.464,3.384,2.196,5.303,2.196c1.919,0,3.839-0.732,5.304-2.197  C289.643,199.213,289.642,194.465,286.713,191.536z M203.508,67.535c28.342,0,51.399,23.06,51.399,51.403  c0,28.342-23.058,51.4-51.399,51.4c-28.343,0-51.402-23.058-51.402-51.4C152.105,90.594,175.165,67.535,203.508,67.535z   M75.631,99.696h64.328c-1.849,6.094-2.853,12.552-2.853,19.242c0,22.904,11.658,43.136,29.352,55.077v47.361H57.582V99.696H75.631z   M83.131,67.535h53.975v17.161H83.131V67.535z M15,99.696h27.582v121.68H15V99.696z M209.039,221.375h-27.582V181.56  c6.904,2.438,14.322,3.779,22.051,3.779c1.864,0,3.706-0.097,5.531-0.248V221.375z" fill="#D80027"/>
<g>
</g>
<g>
</g>
<g>
</g>
<g>
</g>
<g>
</g>
<g>
</g>
<g>
</g>
<g>
</g>
<g>
</g>
<g>
</g>
<g>
</g>
<g>
</g>
<g>
</g>
<g>
</g>
<g>
</g>
</svg>
